<svg xmlns="http://www.w3.org/2000/svg" viewBox="0 0 400 300" role="img" aria-label="Coastal view illustration">
  <defs>
    <linearGradient id="sky" x1="0" y1="0" x2="0" y2="1">
      <stop offset="0%" stop-color="#9dd6f9" />
      <stop offset="100%" stop-color="#5aa4d6" />
    </linearGradient>
    <linearGradient id="water" x1="0" y1="0" x2="1" y2="0">
      <stop offset="0%" stop-color="#4d83b8" />
      <stop offset="100%" stop-color="#7db8e6" />
    </linearGradient>
  </defs>
  <rect width="400" height="180" fill="url(#sky)" />
  <rect y="180" width="400" height="120" fill="url(#water)" />
  <path d="M0 190 Q80 170 160 190 T320 190 T400 180 V300 H0 Z" fill="#2f5d7a" opacity="0.5" />
  <path d="M0 210 Q60 190 120 210 T240 210 T400 200 V300 H0 Z" fill="#1d3d56" opacity="0.6" />
  <rect x="280" y="70" width="60" height="70" fill="#f6f1e6" rx="4" />
  <rect x="290" y="80" width="18" height="18" fill="#2d3f55" />
  <rect x="322" y="80" width="18" height="18" fill="#2d3f55" />
  <rect x="290" y="110" width="18" height="18" fill="#2d3f55" />
  <rect x="322" y="110" width="18" height="18" fill="#2d3f55" />
  <rect x="295" y="138" width="50" height="6" fill="#cfa36b" />
</svg>
