<svg xmlns="http://www.w3.org/2000/svg" viewBox="0 0 400 300" role="img" aria-label="Lake Chelan hills illustration">
  <defs>
    <linearGradient id="lake" x1="0" y1="0" x2="0" y2="1">
      <stop offset="0%" stop-color="#5ec2e6" />
      <stop offset="100%" stop-color="#2a7fad" />
    </linearGradient>
    <linearGradient id="sunset" x1="0" y1="0" x2="0" y2="1">
      <stop offset="0%" stop-color="#f9c46b" />
      <stop offset="100%" stop-color="#e9774c" />
    </linearGradient>
  </defs>
  <rect width="400" height="160" fill="url(#sunset)" />
  <rect y="160" width="400" height="140" fill="url(#lake)" />
  <circle cx="320" cy="70" r="26" fill="#fff4c1" opacity="0.9" />
  <path d="M0 150 Q80 90 160 150 T320 150 T400 110 V300 H0 Z" fill="#7fa944" />
  <path d="M0 170 Q70 130 140 170 T280 170 T400 140 V300 H0 Z" fill="#547c2f" />
  <path d="M0 200 Q60 170 120 200 T240 200 T400 180 V300 H0 Z" fill="#355a1f" />
  <path d="M0 210 Q80 195 160 210 T320 210 T400 190 V300 H0 Z" fill="#274218" opacity="0.7" />
</svg>
